# xmcd CD database file
#
# Track frame offsets:
#	182
#	17797
#	56157
#	85100
#
# Disc length: 1349 seconds
#
# Revision: 2
# Processed by: cddbd v1.5.1PL0 Copyright (c) Steve Scherf et al.
# Submitted via: CDex 1.51
#
DISCID=2a054304
DTITLE=Enigma - Push The Limits
DYEAR=2000
DGENRE=New Age
TTITLE0=Push The Limits (Radio Edit)
TTITLE1=Push The Limits (ATB Remix)
TTITLE2=Push The Limits (Album Version)
TTITLE3=Push The Limits (ATB Radio Remix)
EXTD=YEAR: 2000
EXTT0=
EXTT1=
EXTT2=
EXTT3=
PLAYORDER=
